<?xml version="1.0" encoding="utf-8"?>
<!-- Generator: Adobe Illustrator 24.2.1, SVG Export Plug-In . SVG Version: 6.00 Build 0)  -->
<svg version="1.1" id="Layer_1" xmlns="http://www.w3.org/2000/svg" xmlns:xlink="http://www.w3.org/1999/xlink" x="0px" y="0px"
	 viewBox="0 0 595.28 396.85" style="enable-background:new 0 0 595.28 396.85;" xml:space="preserve">
<style type="text/css">
	.st0{fill:#ED2224;}
	.st1{fill:#FFD200;}
	.st2{fill:none;}
	.st3{fill:#EC2526;}
</style>
<g>
	<path class="st0" d="M44.11,295.7c-22.56-41.35-10.99-58.56-2.68-59.27c8.31-0.71,11.49,37.86,21.25,78.79
		c8.91,37.37,44.14,61.07,65.01,13.41c-0.39-1.32-5.24-5.1-5.24-5.1c-15.11,29.86-27.3,28.79-37.97-13.3
		c-11.92-47-13.64-89.59-48.63-79.05C3.92,240.8-1.27,295.73,44.11,295.7z"/>
	<path class="st0" d="M128.97,176.26c-44.66,10.4-43.11,91.95-15.92,155.47c14.17,26.29,51.79,35.09,81.13,6.17
		c-11.48,9.22-55.05,18.93-69.61-29.76C102.73,235.12,128.97,176.26,128.97,176.26z"/>
	<path class="st0" d="M133.82,286.2c45.01-17.13,67.01-55.18,66.83-80.19c-0.18-25.01-17.27-33.53-41.51-21.33
		c-24.24,12.2-38.99,60.16-26.35,116.03c5.75,25.44,21.24,32.3,37.84,29.89c22.28-3.23,28.78-49.45-11.89-49.45
		c15.65,18.31,16.39,40.54,7.02,42.36c-9.37,1.82-20.64-18.74-17.05-66.01c3.59-47.27,17.42-72.67,26.74-71.83
		s11.76,63.91-38.49,92.93C133.38,282.68,133.82,286.2,133.82,286.2z"/>
	<path class="st0" d="M158.74,281.14c17.13,2.08,33.58-7.05,38.79-17.95l-1.41,8.22c-1.6,6.27-21.83,15.78-28.83,16.15
		C163.36,283.98,158.74,281.14,158.74,281.14z"/>
	<path class="st0" d="M239.41,232.76c-11.4-11.85-46.67,0.5-47.55,52.07c-0.89,28.49,25.59,55.51,43.53,24.35
		c-0.31-1.34-1.75-4.53-1.75-4.53c-13.26,13.08-21.72,3.46-21.88-23.46C211.58,249.6,226.57,230.89,239.41,232.76z"/>
	<path class="st0" d="M225.56,248.64c7.52-5.54,18.69-5.54,18.69-5.54c-0.98,24.5,2.85,51.59,3.18,60.1
		c0.33,8.51,6.52,3.11,11.44-5.55c0.64,5.51-0.17,8.75-0.17,8.75c-11.54,14.78-24.79,18.95-27.85,0.67
		C227.79,288.79,225.56,248.64,225.56,248.64z"/>
	<path class="st0" d="M574.95,267.58c-4.32-6.62-33.84-16.26-51.19,19.31c-9.11,22.13,6.81,52.36,32.01,33.9
		c0.11-1.16-0.25-4.16-0.25-4.16c-15.73,5.81-24.23-7.04-14.01-27.22C551.75,269.23,564.38,267.22,574.95,267.58z"/>
	<path class="st0" d="M563.8,276.38c9.33-0.61,16.1,2.52,16.1,2.52c-8.02,18.96-11.4,34.51-13.58,41.32
		c-2.18,6.81,6.97,4.57,13.91-0.59c-1.03,4.56-2.7,6.83-2.7,6.83c-14.68,7.73-27.8,6.54-25.22-8.89
		C554.89,302.15,563.8,276.38,563.8,276.38z"/>
	<path class="st0" d="M254.46,240.57c1.12,46.47,4.64,75.52,4.64,75.52c12.27,1.59,18.26-2.17,18.26-2.17
		c-5.53-39.68-3.95-76.48-3.95-76.48C262.66,235.89,254.46,240.57,254.46,240.57z"/>
	<path class="st0" d="M285.14,233.84c8.58-3.85,20.14-3.49,20.14-3.49c-2.88,79,0.78,90.63,20.11,96.89c0,0-32.42,3.81-36.37-24.52
		C286.63,285.51,285.14,233.84,285.14,233.84z"/>
	<path class="st0" d="M314.58,211.86c8.37-6.16,19.52-4.54,19.52-4.54c-2.31,28.17-3.36,83-2.38,92.27
		c1.15,10.82,12.26,1.57,12.26,1.57l-0.12,6.12c-21.97,11.07-28.77,8.08-29.59-8.24C312.53,264.71,314.58,211.86,314.58,211.86z"/>
	<path class="st0" d="M400.28,180.13c-48.6-12.51-51.95,25.55-58.79,112.31c-4.08,51.81-47.82,79.9-89.55,52.83
		c25.94,29.01,92.86,29.92,104.07-40.71c8.45-53.22,9.06-88.36,17.4-105.7S400.28,180.13,400.28,180.13z"/>
	<path class="st0" d="M368.4,220.27c22.53-1.56,30.91,9.58,27.42,30.44c-3.35,20.03-7.06,41.22-8.44,48.2
		c-1.39,6.97,9.68,3.69,17.58-4.41c0.67,4.01-0.17,8.5-0.17,8.5c-24.86,14.29-40.2,9.97-36.92-4.47
		c3.28-14.44,6.65-41.89,9.07-54.83C379.06,232.36,378.58,223.72,368.4,220.27z"/>
	<path class="st0" d="M414.24,229.02c8.4-3.17,21.11,3.93,21.11,3.93c-11.68,51.78-18.22,71.24-13.28,74.1
		c4.94,2.87,19.27-6.6,19.27-6.6l-0.15,7.47c-27.34,12.93-42.22,10.7-38.68-16.73C406.06,263.76,414.24,229.02,414.24,229.02z"/>
	<path class="st0" d="M450.32,238.21c8.4-3.11,21.93,3.86,21.93,3.86c-9.07,29.18-20.41,65.9-15.47,68.71
		c4.95,2.81,20.55-8.98,20.55-8.98l-0.14,7.33c-25.36,14.19-42.29,14.44-38.76-12.46C441.95,269.77,450.32,238.21,450.32,238.21z"/>
	<path class="st0" d="M489.86,155.1c12,34.24-2.1,73.31-8.64,101.18c-6.39,27.2-18.63,66.22-18.63,66.22
		c7.87,6.92,17.92,4.07,17.92,4.07C505.42,229.42,526.07,187.86,489.86,155.1z"/>
	<path class="st0" d="M490.97,269.44c34.29-31.63,45.42-38.08,56.42-38.2c11-0.12,20.04,15.06,7.53,24.15
		c-7.75-12.82-23.75-13.13-64.1,21.75C489.88,273.79,490.97,269.44,490.97,269.44z"/>
	<path class="st0" d="M495.27,268.92c19.02,4.42,17.32,24.94,19.64,41.99c3.18,23.35,15.52,35.63,30.83,36.19
		c22.13,0.81,38.66-20.77,38.66-20.77c-1.99,11.6-17.49,28.27-39.49,29.35c-11.11,0.55-32.42-4.63-41.25-28.26
		c-7.98-21.35-0.42-40.15-20.92-40.78C487.16,276.78,495.27,268.92,495.27,268.92z"/>
	<path class="st0" d="M266.06,275.37c8.45,2.85,23.41-1.49,23.41-1.49c0.64,5.64,0.66,6.08,0.66,6.08c-7.7,3.74-22.08,2.1-22.08,2.1
		L266.06,275.37z"/>
	<path class="st1" d="M46.73,231.44c15.33,3.83,19.67,17.1,23.83,34.63C64.39,247.6,57.73,235.94,46.73,231.44z"/>
	<path class="st2" d="M183.73,181.94c15.5,3.5,16.9,28.67,10.45,44C197.73,207.94,196.23,189.27,183.73,181.94z"/>
	<path class="st1" d="M86.23,329.6c4.17,18.33,13.83,22,22,16.5C100.89,348.6,92.39,345.1,86.23,329.6z"/>
	<path class="st1" d="M126.89,321.85c8.25,20.42,26.76,28.26,43.48,24.89C153.87,352.07,132.73,346.44,126.89,321.85z"/>
	<path class="st1" d="M166.73,283.44c12.59,3.66,18.5,13.5,18.33,21.17C180.73,292.77,172.39,286.27,166.73,283.44z"/>
	<path class="st1" d="M208.39,294.02c3.67,20.25,14.33,22.08,19.67,17.58C220.23,320.44,208.56,311.77,208.39,294.02z"/>
	<path class="st1" d="M243.06,296.27c0.5,16.83,6.25,15.17,8.88,12.83C246.56,316.1,241.39,308.44,243.06,296.27z"/>
	<path class="st1" d="M302.06,296.27c2.5,19.33,8.67,25.83,14.83,28.83C303.89,320.6,302.73,310.44,302.06,296.27z"/>
	<path class="st1" d="M327.89,292.6c0.33,16,4.5,15.83,9.83,14.33C327.23,311.6,326.23,304.6,327.89,292.6z"/>
	<path class="st1" d="M386.33,287.44c-3.43,16.67-1.6,19.17,5.9,17.67C381.39,308.27,381.92,303.27,386.33,287.44z"/>
	<path class="st1" d="M418.39,291.27c-2.5,16.83,0.5,20.83,8.5,17.83C415.89,314.27,413.89,307.27,418.39,291.27z"/>
	<path class="st1" d="M453.73,296.27c-2.33,13.83,0.26,18.51,6.5,16.05C450.89,316.94,449.56,309.27,453.73,296.27z"/>
	<path class="st1" d="M501.06,173.32c7.91,18.28,6,33.29,4.33,45.45C505.89,203.27,505.06,188.37,501.06,173.32z"/>
	<path class="st1" d="M539.39,234.27c14.33-3.5,19.77,5.93,18.83,12.5C556.23,238.44,549.89,232.94,539.39,234.27z"/>
	<path class="st1" d="M497.73,271.88c11.67,7.12,13.17,21.06,14,36.39C509.89,292.44,506.64,279.87,497.73,271.88z"/>
	<path class="st1" d="M534.39,306.6c2.83,13.5,10.01,14,17.59,13.17C538.89,323.1,535.06,316.94,534.39,306.6z"/>
	<path class="st1" d="M564.77,315.3c-3.17,10.39,1.5,12.05,7.17,10.22C564.6,328.69,559.6,325.75,564.77,315.3z"/>
	<path class="st1" d="M379.81,179.44c-13.1,3.56-21.5,14.25-24.08,28.42C360.06,195.85,368.48,183.44,379.81,179.44z"/>
	<path class="st1" d="M230.73,229.94c-16.42,0.92-22.5,11-25.04,15.67C212.02,236.94,222.73,230.6,230.73,229.94z"/>
	<path class="st1" d="M121.83,180.06c-13,8.12-18.85,19.88-22.02,33.21C103.89,200.85,111.83,186.81,121.83,180.06z"/>
	<path class="st1" d="M380.89,222.31c10.88,5.88,14,13.12,11.88,25.25C392.77,236.94,390.77,228.31,380.89,222.31z"/>
	<path class="st1" d="M147.29,299.48c2.28,14.91,8.27,26.29,17.12,26.41C153.17,326.72,148.38,316.08,147.29,299.48z"/>
	<path class="st1" d="M329.23,334.1c-9.67,16.67-27.83,23.83-41.67,24C309.23,360.1,323.56,347.27,329.23,334.1z"/>
	<g>
		<path class="st0" d="M309.39,113.77c20.83,8.83,38.95,33.49,31.33,54c-8.67,23.33-37.67,29.33-62.63,14.67
			c11.37,2,30.63-5.33,31.3-27.34c-1.33-34-50.27-42-73.33,0c6-11.34,32.67-30,56.67,0c-24.08-8.66-53.32,17.34-33.61,52.03
			C147.39,159.1,188.73,19.1,294.06,62.44c-60,18.67-72.67,57.33-71.33,85.33c19.61-74.67,118.51-76,121.26-118.67
			c6.74,58-48.59,80.67-48.59,80.67c28.5-8.33,63.58,0.17,72.04-20.83c8.46-21-11.04-34.5-11.04-34.5c29.93,4.5,41,24,40,35
			s-7.5,21.5-24.5,23c24,4.12,41-6,40.5-26c9,7.5,7,19.5,4.5,23.5c19.75-0.88,44.75-23.06,44.75-23.06l1.25,5.56
			c-24.17,24.75-47,25.68-47,25.68c40.5,14.82,41,52.82,14.5,65.82c8-28.5-16.32-64.31-60.5-63c28,14.5,30.38,47,30.38,47
			c-27.88-30-44.12-6-71.5-55.5C319.39,111.94,309.39,113.77,309.39,113.77z"/>
		<path class="st1" d="M209.39,155.1c-16.41-41.67-3.71-78.66,32.94-93.33C197.51,70.44,188.06,123.43,209.39,155.1z"/>
		<path class="st1" d="M327.23,57.94c-30.17,38.33-58.28,31.67-85.56,64C267.06,84.27,301.39,86.31,327.23,57.94z"/>
		<path class="st1" d="M238.91,166.19c0.65-24.58,26.23-26,35.65-21C250.56,142.41,244.26,153.85,238.91,166.19z"/>
		<path class="st1" d="M305.27,118.12c25.96,12.49,35.79,33.14,30.46,48.66c-5.33,15.52-19.41,19.48-32.33,20.33
			c25.32-6.5,28.3-17.65,29.42-25.92C333.98,152.52,331.73,136.77,305.27,118.12z"/>
		<path class="st1" d="M363.56,121.94c16.08,6.67,25.67,18.5,31.17,33.16C387.23,141.26,370.73,126.1,363.56,121.94z"/>
		<path class="st1" d="M379.14,66.56c17.25,19.98,9.25,35.25-7.5,42.5C391.9,102.95,401.64,87.31,379.14,66.56z"/>
		<path class="st1" d="M431.97,131.9c17.21,15.81,16.27,29.74,6.77,41.42C444.67,159.68,442.49,144.3,431.97,131.9z"/>
		
			<ellipse transform="matrix(0.9721 -0.2347 0.2347 0.9721 3.5639 112.6461)" class="st0" cx="475.08" cy="41.35" rx="10.56" ry="27.01"/>
		<path class="st1" d="M482.43,37.31c0.92,2.83,1.77,5.55,2.18,8.18c-0.21-2.59-0.65-5.35-1.34-8.2
			c-2.91-12.04-9.08-20.87-13.78-19.74c-1.18,0.28-2.15,1.16-2.9,2.51C471.58,17.05,478.2,24.25,482.43,37.31z"/>
		<path class="st0" d="M460.39,47.06c12.73,7.78,20.58,18.11,17.54,23.09c-3.04,4.97-15.82,2.7-28.55-5.07
			c-12.73-7.78-20.58-18.11-17.54-23.09C434.88,37.01,447.66,39.28,460.39,47.06z"/>
		<path class="st1" d="M457.23,48.01c2.65,1.35,5.18,2.67,7.32,4.24c-1.98-1.68-4.25-3.32-6.75-4.85
			c-10.57-6.46-21.18-8.34-23.7-4.21c-0.63,1.03-0.7,2.34-0.28,3.83C435.22,41.35,445,41.77,457.23,48.01z"/>
		
			<ellipse transform="matrix(0.9721 -0.2347 0.2347 0.9721 -6.3555 108.0963)" class="st0" cx="451" cy="80.75" rx="27.01" ry="10.56"/>
		<path class="st1" d="M446.97,73.4c2.83-0.92,5.55-1.77,8.18-2.18c-2.59,0.21-5.35,0.65-8.2,1.34
			c-12.04,2.91-20.87,9.08-19.74,13.78c0.28,1.18,1.16,2.15,2.51,2.9C426.7,84.25,433.91,77.64,446.97,73.4z"/>
		
			<ellipse transform="matrix(0.5214 -0.8533 0.8533 0.5214 136.7434 445.7123)" class="st0" cx="465.72" cy="100.95" rx="27.01" ry="10.56"/>
		<path class="st1" d="M457.67,98.61c1.35-2.65,2.67-5.18,4.24-7.32c-1.68,1.98-3.32,4.25-4.85,6.75
			c-6.46,10.57-8.34,21.18-4.21,23.7c1.03,0.63,2.34,0.7,3.83,0.28C451.01,120.61,451.43,110.84,457.67,98.61z"/>
		
			<ellipse transform="matrix(0.9721 -0.2347 0.2347 0.9721 -10.9055 118.0157)" class="st0" cx="490.41" cy="104.83" rx="10.56" ry="27.01"/>
		<path class="st1" d="M483.06,108.87c-0.92-2.83-1.77-5.55-2.18-8.18c0.21,2.59,0.65,5.35,1.34,8.2
			c2.91,12.04,9.08,20.87,13.78,19.74c1.18-0.28,2.15-1.16,2.9-2.51C493.91,129.13,487.29,121.92,483.06,108.87z"/>
		<path class="st0" d="M505.1,99.12c-12.73-7.78-20.58-18.11-17.54-23.09c3.04-4.97,15.82-2.7,28.55,5.07
			c12.73,7.78,20.58,18.11,17.54,23.09C530.61,109.17,517.83,106.9,505.1,99.12z"/>
		<path class="st1" d="M508.26,98.17c-2.65-1.35-5.18-2.67-7.32-4.24c1.98,1.68,4.25,3.32,6.75,4.85
			c10.57,6.46,21.18,8.34,23.7,4.21c0.63-1.03,0.7-2.34,0.28-3.83C530.27,104.82,520.49,104.4,508.26,98.17z"/>
		
			<ellipse transform="matrix(0.9721 -0.2347 0.2347 0.9721 -0.9861 122.5659)" class="st3" cx="514.48" cy="65.43" rx="27.01" ry="10.56"/>
		<path class="st1" d="M518.52,72.78c-2.83,0.92-5.55,1.77-8.18,2.18c2.59-0.21,5.35-0.65,8.2-1.34
			c12.04-2.91,20.87-9.08,19.74-13.78c-0.28-1.18-1.16-2.15-2.51-2.9C538.79,61.93,531.58,68.54,518.52,72.78z"/>
		<path class="st0" d="M508.78,50.73c-7.78,12.73-18.11,20.58-23.09,17.54s-2.7-15.82,5.07-28.55
			c7.78-12.73,18.11-20.58,23.09-17.54C518.83,25.22,516.55,38,508.78,50.73z"/>
		<path class="st1" d="M507.82,47.57c-1.35,2.65-2.67,5.18-4.24,7.32c1.68-1.98,3.32-4.25,4.85-6.75
			c6.46-10.57,8.34-21.18,4.21-23.7c-1.03-0.63-2.34-0.7-3.83-0.28C514.48,25.57,514.06,35.34,507.82,47.57z"/>
		<path class="st1" d="M499.27,69.1c2.2,9.13-3.41,18.31-12.54,20.51c-9.13,2.2-18.31-3.41-20.51-12.54
			c-2.2-9.13,3.41-18.31,12.54-20.51C487.88,54.36,497.07,59.97,499.27,69.1z"/>
		<path class="st0" d="M496.65,68.92c-1.74-7.21-8.99-11.64-16.2-9.9c-2.38,0.57-4.44,1.76-6.09,3.33c1.09-0.63,2.27-1.12,3.55-1.43
			c7.19-1.74,14.42,2.68,16.16,9.87c1.18,4.89-0.5,9.81-3.95,12.99C495.27,80.94,498.1,74.92,496.65,68.92z"/>
	</g>
</g>
</svg>
